HIERARCHY
ROOT root
{
	OFFSET	0	13.1	24.9
	CHANNELS 6  Xposition Yposition Zposition Xrotation Yrotation Zrotation
	JOINT spine_1
	{
		OFFSET	0	9.99999	0
		CHANNELS 3  Xrotation Yrotation Zrotation
		JOINT spine_2
		{
			OFFSET	0	112	-10
			CHANNELS 3  Xrotation Yrotation Zrotation
			JOINT spine_3
			{
				OFFSET	0	206.5	19.3
				CHANNELS 3  Xrotation Yrotation Zrotation
				JOINT spine_4
				{
					OFFSET	0	110.4	14.6
					CHANNELS 3  Xrotation Yrotation Zrotation
					JOINT neck_1
					{
						OFFSET	0	71.8	-50.3
						CHANNELS 3  Xrotation Yrotation Zrotation
						JOINT neck_2
						{
							OFFSET	0	86.2	-25.8
							CHANNELS 3  Xrotation Yrotation Zrotation
							JOINT head_ee
							{
								OFFSET	0	179.8	-8.7
								CHANNELS 3  Xrotation Yrotation Zrotation
								End Site
								{
									OFFSET	1	0	0
								}
							}
						}
					}
					JOINT left_clavicle
					{
						OFFSET	-43.2	22.4	-70.8
						CHANNELS 3  Xrotation Yrotation Zrotation
						JOINT left_shoulder
						{
							OFFSET	-93.9	-5.79999	48.7
							CHANNELS 3  Xrotation Yrotation Zrotation
							JOINT left_elbow
							{
								OFFSET	-291.4	-30.8	15.2
								CHANNELS 3  Xrotation Yrotation Zrotation
								JOINT left_lowarm_twist
								{
									OFFSET	-110.7	-3.89999	13.6
									CHANNELS 3  Xrotation Yrotation Zrotation
									JOINT left_hand
									{
										OFFSET	-110.7	-3.89999	13.6
										CHANNELS 3  Xrotation Yrotation Zrotation
										JOINT left_ee
										{
											OFFSET	-80.8	-5.10001	12.1
											CHANNELS 3  Xrotation Yrotation Zrotation
											End Site
											{
												OFFSET	1	0	0
											}
										}
									}
								}
							}
						}
					}
					JOINT right_clavicle
					{
						OFFSET	43.2	22.4	-70.8
						CHANNELS 3  Xrotation Yrotation Zrotation
						JOINT right_shoulder
						{
							OFFSET	93.9	-5.79999	48.7
							CHANNELS 3  Xrotation Yrotation Zrotation
							JOINT right_elbow
							{
								OFFSET	291.4	-30.8	15.2
								CHANNELS 3  Xrotation Yrotation Zrotation
								JOINT right_lowarm_twist
								{
									OFFSET	110.7	-3.89999	13.6
									CHANNELS 3  Xrotation Yrotation Zrotation
									JOINT right_hand
									{
										OFFSET	110.7	-3.89999	13.6
										CHANNELS 3  Xrotation Yrotation Zrotation
										JOINT right_ee
										{
											OFFSET	80.8	-5.10001	12.1
											CHANNELS 3  Xrotation Yrotation Zrotation
											End Site
											{
												OFFSET	1	0	0
											}
										}
									}
								}
							}
						}
					}
				}
			}
		}
	}
	JOINT left_hip
	{
		OFFSET	-82.8	-127.5	0.300001
		CHANNELS 3  Xrotation Yrotation Zrotation
		JOINT left_knee
		{
			OFFSET	-28.2	-396.7	2.2
			CHANNELS 3  Xrotation Yrotation Zrotation
			JOINT left_ankle
			{
				OFFSET	-11.7	-411.3	35.4
				CHANNELS 3  Xrotation Yrotation Zrotation
				JOINT left_toes
				{
					OFFSET	0	-60	-88.6
					CHANNELS 3  Xrotation Yrotation Zrotation
					JOINT left_foot_ee
					{
						OFFSET	-22.5	-16.5	-42.2
						CHANNELS 3  Xrotation Yrotation Zrotation
						End Site
						{
							OFFSET	1	0	0
						}
					}
				}
			}
		}
	}
	JOINT right_hip
	{
		OFFSET	82.8	-127.5	0.300001
		CHANNELS 3  Xrotation Yrotation Zrotation
		JOINT right_knee
		{
			OFFSET	28.2	-396.7	2.2
			CHANNELS 3  Xrotation Yrotation Zrotation
			JOINT right_ankle
			{
				OFFSET	11.7	-411.3	35.4
				CHANNELS 3  Xrotation Yrotation Zrotation
				JOINT right_toes
				{
					OFFSET	0	-60	-88.6
					CHANNELS 3  Xrotation Yrotation Zrotation
					JOINT right_foot_ee
					{
						OFFSET	22.5	-16.5	-42.2
						CHANNELS 3  Xrotation Yrotation Zrotation
						End Site
						{
							OFFSET	1	0	0
						}
					}
				}
			}
		}
	}
}
MOTION
Frames: 16
Frame Time: 0.02
3201.44 742.944 -526.46 141.651 -71.3251 144.976 -2.82376 -0.116584 -1.44624 -2.8226 -0.0243296 -1.45073 -2.82063 0.350896 -1.40787 -2.82337 0.12417 -1.44561 -9.78199 10.428 7.02333 -9.71672 14.8617 9.39633 -0.0 0.0 -0.0 5.90602 10.9098 11.4194 -23.3276 -14.8333 71.5713 0.227508 -6.43031 0.0127801 -48.8414 -3.93663 4.62094 -1.12251 19.0337 0.958201 -0.0 0.0 -0.0 2.88383 19.0247 -3.96943 13.4736 19.2221 -69.1718 1.56746 37.8257 -0.537083 20.5106 -0.261054 2.59308 -0.0202995 -12.0148 -4.82587 0.0 0.0 0.0 0.748415 9.16458 -10.6748 -42.2846 -0.618476 6.31511 39.5109 14.8585 -4.88642 -33.5339 0.0 0.0 -0.0 0.0 -0.0 1.66307 21.4203 -10.0569 -10.1323 -0.282753 -1.52726 23.5441 15.2068 3.40727 -24.6516 0.0 0.0 0.0 0.0 0.0 
3210.32 743.111 -528.405 141.121 -70.5351 144.543 -2.93861 0.0406987 -1.45564 -2.93744 0.133233 -1.4501 -2.93964 0.50584 -1.36555 -2.94213 0.283852 -1.42828 -11.4274 10.2584 7.46971 -11.3732 14.5549 9.97269 -0.0 0.0 -0.0 5.74433 11.8445 11.1201 -24.3204 -14.731 72.3411 0.267895 -7.55959 0.0176988 -48.6584 -3.9154 4.6109 -0.965135 18.9567 1.86732 -0.0 0.0 -0.0 2.78612 18.937 -3.76817 14.4431 19.6422 -68.8397 1.69388 39.9965 -0.616501 20.3606 -0.262535 2.57397 0.0160416 -10.4899 -4.44361 0.0 0.0 0.0 2.53754 9.03257 -11.7869 -35.407 -0.200712 5.34467 38.9382 15.1008 -4.83767 -34.076 0.0 0.0 -0.0 0.0 -0.0 -0.0884243 19.7713 -9.38327 -12.2456 -0.307434 -1.85057 23.8991 14.2333 3.4287 -24.8089 0.0 0.0 0.0 0.0 0.0 
3210.09 745.918 -530.013 147.124 -70.7506 151.006 -2.8132 0.0641244 -1.568 -2.81184 0.163758 -1.56074 -2.81502 0.560931 -1.46566 -2.81787 0.322447 -1.53583 -9.98257 10.8664 7.02302 -9.9302 15.7288 9.52952 -0.0 0.0 -0.0 5.32681 12.3095 10.3976 -24.3449 -14.796 73.9184 0.301367 -8.49109 0.0223719 -47.7917 -3.81527 4.56245 -0.655672 19.3711 3.89527 -0.0 0.0 -0.0 2.71806 18.0533 -3.70768 15.3795 19.9236 -68.3096 2.08756 45.9552 -0.885233 20.0599 -0.265352 2.53567 0.215884 -6.80646 -4.24682 0.0 0.0 0.0 3.438 9.10323 -11.9404 -25.689 0.184904 3.90497 33.8148 19.4686 -4.4075 -35.0613 0.0 0.0 -0.0 0.0 -0.0 -0.240286 21.2494 -9.67562 -4.99664 -0.173237 -0.747026 21.8001 12.622 3.13174 -25.0094 0.0 0.0 0.0 0.0 0.0 
3213.58 748.434 -530.984 148.644 -71.56 153.033 -2.58104 -0.262045 -1.73288 -2.57938 -0.151264 -1.74603 -2.57274 0.296987 -1.72723 -2.57691 0.0205196 -1.75245 -10.7283 10.4689 7.84128 -10.6446 14.5724 10.3017 -0.0 0.0 -0.0 5.34657 13.0898 10.421 -24.5492 -14.2652 74.2647 0.296108 -8.34502 0.0216021 -47.8542 -3.82246 4.56599 -0.415558 18.4866 4.97758 -0.0 0.0 -0.0 3.0661 17.8028 -4.47652 16.2286 19.901 -67.9415 2.18472 47.2557 -0.955839 20.3702 -0.262442 2.57519 0.0473772 -7.82831 -3.56505 0.0 0.0 0.0 4.19233 10.132 -12.7982 -21.8121 0.269708 3.31619 34.0955 17.4411 -4.40157 -36.4099 0.0 0.0 -0.0 0.0 -0.0 0.473542 18.7084 -9.95294 -4.91131 -0.170828 -0.734151 21.3654 12.0826 3.06635 -25.5608 0.0 0.0 0.0 0.0 0.0 
3221.07 750.374 -531.042 150.53 -70.5353 154.827 -2.75434 -0.00238366 -1.78007 -2.75258 0.110873 -1.77662 -2.75424 0.563767 -1.68847 -2.7581 0.290073 -1.75629 -11.7009 10.2566 7.2894 -11.6621 14.7205 9.83391 -0.0 0.0 -0.0 5.38122 13.0495 10.48 -24.3212 -14.2742 74.6321 0.292921 -8.25643 0.0211418 -47.939 -3.83224 4.57079 -0.634383 18.8378 3.80226 -0.0 0.0 -0.0 2.86041 17.7755 -4.03895 16.3333 20.088 -68.0328 2.20523 47.5224 -0.970938 19.9422 -0.266401 2.52067 0.0649634 -8.36564 -3.89807 0.0 0.0 0.0 3.72376 9.27694 -12.3653 -22.884 0.25025 3.47952 36.9697 16.4816 -4.67313 -35.0939 0.0 0.0 -0.0 0.0 -0.0 0.669378 18.7819 -9.59163 -6.33486 -0.208509 -0.949362 23.2343 13.2194 3.32393 -25.4283 0.0 0.0 0.0 0.0 0.0 
3222.98 746.022 -530.696 151.555 -71.3014 156.568 -2.67816 -0.210962 -1.80313 -2.67635 -0.0958166 -1.81289 -2.67117 0.37068 -1.77719 -2.67557 0.085403 -1.81341 -9.99056 10.9061 6.32266 -9.97021 16.2799 8.8665 -0.0 0.0 -0.0 4.89205 13.7688 9.65328 -23.8359 -14.1787 74.8952 0.314439 -8.85365 0.0243429 -47.6051 -3.7938 4.55182 -0.173663 17.7582 6.15529 -0.0 0.0 -0.0 2.82462 15.222 -4.20191 16.4239 20.0509 -68.0029 2.66073 52.8033 -1.32107 20.1301 -0.264712 2.54462 0.194648 -4.89621 -3.32849 0.0 0.0 0.0 3.84629 9.49183 -12.7904 -20.2724 0.2923 3.08103 34.5414 18.7262 -4.46917 -36.5301 0.0 0.0 -0.0 0.0 -0.0 1.14123 18.2116 -10.5354 -5.08902 -0.175824 -0.760967 21.6861 12.6468 3.11776 -26.14 0.0 0.0 0.0 0.0 0.0 
3230.88 746.368 -535.088 153.032 -71.3908 158.149 -2.61812 -0.194051 -1.90413 -2.6161 -0.072516 -1.91261 -2.61136 0.416769 -1.86808 -2.61621 0.116567 -1.91044 -9.7326 10.2797 5.98606 -9.70735 15.2793 8.35217 -0.0 0.0 -0.0 5.337 13.6321 10.3966 -23.8852 -14.2588 75.0486 0.271949 -7.67262 0.018236 -47.4508 -3.77609 4.54298 -0.116395 18.1758 6.66765 -0.0 0.0 -0.0 2.97058 14.2328 -4.601 15.829 20.0419 -67.7312 2.85027 54.6818 -1.47393 19.8278 -0.26739 2.50609 0.170051 -6.10561 -3.66183 0.0 0.0 0.0 3.53779 9.49769 -12.7008 -18.5387 0.310167 2.81562 33.8132 20.0762 -4.41898 -36.581 0.0 0.0 -0.0 0.0 -0.0 1.23216 17.7132 -10.6495 -5.10455 -0.176257 -0.763311 22.5069 11.6272 3.20173 -25.5754 0.0 0.0 0.0 0.0 0.0 
3235.96 744.648 -533.155 155.155 -71.523 160.738 -2.44115 -0.112039 -2.03389 -2.43885 0.0175822 -2.03689 -2.4371 0.529627 -1.96694 -2.44244 0.212406 -2.02587 -9.15507 10.7386 6.06492 -9.12021 15.989 8.46973 -0.0 0.0 -0.0 4.96953 13.8634 9.78141 -23.3536 -14.3315 74.834 0.321344 -9.0449 0.0254171 -47.5117 -3.78308 4.54647 -0.104707 17.9689 6.65811 -0.0 0.0 -0.0 2.67243 13.2247 -4.06325 15.7374 20.0959 -68.6797 2.96814 55.7684 -1.57076 20.0295 -0.265627 2.53179 0.334891 -5.85346 -4.6402 0.0 0.0 0.0 3.28095 9.35452 -13.1038 -17.1129 0.318837 2.59704 31.3641 21.2995 -4.17956 -37.4616 0.0 0.0 -0.0 0.0 -0.0 1.56594 17.1643 -11.3055 -3.51599 -0.128712 -0.524159 20.7352 10.4351 2.95766 -25.6264 0.0 0.0 0.0 0.0 0.0 
3241.84 745.453 -539.009 155.385 -71.6035 160.985 -2.44391 -0.279752 -2.20223 -2.44123 -0.139087 -2.21556 -2.43276 0.422734 -2.17932 -2.43938 0.0733348 -2.21871 -10.7961 10.9467 7.57462 -10.7392 15.6698 10.1811 -0.0 0.0 -0.0 5.23828 14.975 10.2105 -23.1124 -14.335 74.7954 0.338478 -9.51855 0.0281805 -46.9596 -3.71983 4.51451 0.128124 17.8247 8.02458 -0.0 0.0 -0.0 2.56331 11.6719 -3.9751 14.9304 20.0688 -68.5366 3.0964 56.8857 -1.6775 19.9636 -0.266212 2.5234 0.338004 -4.9845 -4.3083 0.0 0.0 0.0 2.56804 9.82224 -12.4571 -16.6053 0.32061 2.51917 33.0419 21.6499 -4.36945 -37.4077 0.0 0.0 -0.0 0.0 -0.0 1.84603 17.0117 -10.7311 -5.19049 -0.17864 -0.776285 22.853 10.0499 3.21654 -25.5272 0.0 0.0 0.0 0.0 0.0 
3245.94 747.829 -539.667 158.282 -70.723 164.166 -2.28115 0.0715183 -2.43127 -2.27789 0.226036 -2.4218 -2.28465 0.822405 -2.28915 -2.29168 0.450665 -2.39023 -10.3924 11.9244 9.32244 -10.2505 16.2659 12.0552 -0.0 0.0 -0.0 4.96385 14.965 9.76186 -21.2086 -14.6969 74.9711 0.354783 -9.96809 0.03094 -47.9343 -3.83169 4.57053 0.66971 17.6248 11.2883 -0.0 0.0 -0.0 2.67467 12.1624 -4.16393 14.1575 21.1165 -68.0353 2.86506 54.8214 -1.48601 21.3933 -0.251328 2.7054 0.328811 -5.28945 -4.37166 0.0 0.0 0.0 3.94588 9.74667 -12.8369 -17.0273 0.319184 2.58391 30.9736 26.2471 -4.25153 -38.2208 0.0 0.0 -0.0 0.0 -0.0 1.91553 16.8789 -10.6786 -4.02019 -0.144521 -0.599924 21.3478 8.94733 3.01185 -25.403 0.0 0.0 0.0 0.0 0.0 
3252.78 748.51 -542.216 159.463 -70.7849 165.474 -2.18872 -0.0161552 -2.62377 -2.1849 0.150777 -2.61949 -2.18838 0.794589 -2.50069 -2.19689 0.389821 -2.59472 -10.4141 12.3168 10.0075 -10.239 16.5539 12.8127 -0.0 0.0 -0.0 4.74909 15.6634 9.40685 -19.7467 -14.9994 74.8851 0.396881 -11.1229 0.0386451 -48.442 -3.89032 4.59894 0.897162 17.2377 12.5696 -0.0 0.0 -0.0 2.46209 11.3104 -3.79655 12.9311 21.1895 -68.2686 2.76377 53.8453 -1.40371 22.1765 -0.24125 2.80494 0.570634 -4.47384 -5.63731 0.0 0.0 0.0 3.67856 9.93777 -12.7744 -16.2031 0.321525 2.45747 28.4444 27.4119 -3.98541 -38.2258 0.0 0.0 -0.0 0.0 -0.0 2.02243 16.7408 -10.7653 -4.12668 -0.147775 -0.615943 21.3546 9.2942 3.01796 -25.2193 0.0 0.0 0.0 0.0 0.0 
3258.01 749.755 -541.796 161.47 -70.5876 167.667 -1.9892 -0.102655 -2.69754 -1.98515 0.0691413 -2.69861 -1.98478 0.725795 -2.60016 -1.99408 0.306195 -2.68208 -10.2421 13.2345 11.06 -10.0123 17.5381 14.027 -0.0 0.0 -0.0 5.10336 16.2483 9.96897 -19.3347 -14.8828 73.6212 0.370508 -10.4005 0.0337205 -48.7565 -3.92678 4.61629 1.18053 16.914 14.2422 -0.0 0.0 -0.0 2.50697 11.956 -3.83158 11.7107 21.8018 -68.0947 2.59191 52.0783 -1.26651 23.533 -0.220578 2.97697 0.5403 -3.75655 -5.14697 0.0 0.0 0.0 3.35774 9.94356 -12.7474 -15.5268 0.322087 2.35371 27.7922 27.2196 -3.90154 -38.209 0.0 0.0 -0.0 0.0 -0.0 1.86014 17.2086 -10.8996 -2.36426 -0.0901001 -0.351622 21.4878 7.2855 3.00586 -24.832 0.0 0.0 0.0 0.0 0.0 
3270.14 751.761 -542.407 162.446 -69.6556 168.767 -1.85088 -0.0935067 -2.80594 -1.8465 0.0851605 -2.8062 -1.84692 0.761148 -2.70243 -1.85696 0.324973 -2.78864 -9.80957 14.4576 12.807 -9.46207 18.5365 15.9357 -0.0 0.0 -0.0 4.73787 19.6812 9.33691 -18.9182 -16.2677 72.5411 0.468784 -13.0738 0.0537173 -49.4473 -4.00716 4.65369 1.48301 16.9235 16.1703 -0.0 0.0 -0.0 2.36529 12.1486 -3.51742 9.0515 21.9774 -67.962 2.4425 50.419 -1.14998 24.5323 -0.202747 3.10338 0.90197 -2.81435 -7.17355 0.0 0.0 0.0 3.06149 10.4759 -12.597 -16.3451 0.321251 2.47926 22.3115 28.7013 -3.2439 -39.3505 0.0 0.0 -0.0 0.0 -0.0 1.40073 16.6106 -10.936 -2.64699 -0.0999002 -0.393906 22.4598 5.10173 3.09836 -25.38 0.0 0.0 0.0 0.0 0.0 
3280.2 752.342 -542.384 163.057 -70.3407 169.302 -1.6141 -0.354667 -2.78828 -1.60979 -0.176594 -2.80518 -1.59713 0.494559 -2.76692 -1.60781 0.0515496 -2.81026 -9.60994 14.7652 13.2963 -9.22286 18.7171 16.4491 -0.0 0.0 -0.0 4.68292 21.8263 9.21088 -18.5995 -17.9624 70.6017 0.533908 -14.8147 0.0694126 -49.437 -4.00596 4.65313 1.75509 16.9714 17.9361 -0.0 0.0 -0.0 2.28843 13.6191 -3.21801 5.68693 22.1322 -67.8969 2.2686 48.3294 -1.01798 25.888 -0.175038 3.27433 1.20651 -0.559285 -8.31143 0.0 0.0 0.0 2.86994 11.0166 -12.7273 -15.5524 0.322088 2.35763 22.0412 27.5262 -3.183 -39.0908 0.0 0.0 -0.0 0.0 -0.0 0.515068 16.6719 -10.7229 -2.72534 -0.102579 -0.405633 24.548 3.70148 3.33267 -24.1647 0.0 0.0 0.0 0.0 0.0 
3285.31 748.879 -545.95 163.904 -70.2147 170.56 -1.45383 -0.416159 -2.82155 -1.44944 -0.235848 -2.84229 -1.4337 0.437708 -2.81829 -1.44479 -0.0126925 -2.85202 -8.45865 15.7396 12.3571 -8.12015 20.8465 15.61 -0.0 0.0 -0.0 4.28697 23.3806 8.61797 -17.7071 -17.904 70.2114 0.668447 -18.3213 0.107795 -49.9447 -4.06531 4.68001 1.77024 19.1927 18.7197 -0.0 0.0 -0.0 2.34669 15.4388 -3.16736 3.32926 22.3994 -66.8433 2.11495 46.3283 -0.904986 26.5943 -0.158998 3.36314 1.3665 -1.2099 -9.65248 0.0 0.0 0.0 2.72812 11.5792 -12.6876 -15.8429 0.321977 2.40221 26.3361 26.4694 -3.70517 -40.1686 0.0 0.0 -0.0 0.0 -0.0 0.131151 16.9411 -10.8023 -1.79097 -0.0695885 -0.266031 24.7458 2.70581 3.34578 -23.722 0.0 0.0 0.0 0.0 0.0 
3292.78 747.114 -548.359 165.672 -69.6858 172.527 -1.28685 -0.398439 -2.83324 -1.28241 -0.21742 -2.85283 -1.26775 0.449932 -2.82553 -1.27889 -0.00176385 -2.8611 -10.2156 15.2807 12.6646 -9.91329 20.3285 16.0621 -0.0 0.0 -0.0 4.46726 24.1012 8.85369 -17.1074 -18.8996 68.773 0.736593 -20.0463 0.13019 -50.3296 -4.11047 4.70003 1.87626 17.8254 18.9858 -0.0 0.0 -0.0 2.28763 16.4376 -2.94501 1.26396 22.7799 -66.9796 1.9234 43.6106 -0.769571 27.52 -0.136322 3.47921 1.29286 -2.65217 -9.72886 0.0 0.0 0.0 3.15903 14.2696 -12.9967 -15.9764 0.32185 2.4227 26.8384 25.7776 -3.75068 -38.5989 0.0 0.0 -0.0 0.0 -0.0 0.287436 15.4879 -11.0775 -2.9904 -0.111523 -0.445329 26.314 1.59475 3.51657 -23.8603 0.0 0.0 0.0 0.0 0.0 
